<?xml version="1.0" encoding="UTF-8"?>
<svg xmlns="http://www.w3.org/2000/svg" xmlns:xlink="http://www.w3.org/1999/xlink" viewBox="0 0 100 100" width="100px" height="100px">
<g id="surface50445768">
<path style=" stroke:none;fill-rule:nonzero;fill:rgb(100%,100%,100%);fill-opacity:1;" d="M 50 4 C 24.636719 4 4 24.632812 4 50 C 4 75.367188 24.636719 96 50 96 C 75.367188 96 96 75.367188 96 50 C 96 24.632812 75.367188 4 50 4 Z M 64 32 L 57.421875 32 C 53.542969 32 52 32.910156 52 35.613281 L 52 42 L 64 42 L 62 52 L 52 52 L 52 78 L 40 78 L 40 52 L 34 52 L 34 42 L 40 42 L 40 36.453125 C 40 28.003906 43.371094 22 53.160156 22 C 58.40625 22 64 24 64 24 Z M 64 32 "/>
</g>
</svg>
